<svg width="56" height="56" viewBox="0 0 56 56" fill="none" xmlns="http://www.w3.org/2000/svg">
<path fill-rule="evenodd" clip-rule="evenodd" d="M15.8594 12.25C15.8594 5.4845 21.3439 0 28.1094 0C34.8749 0 40.3594 5.4845 40.3594 12.25H15.8594ZM52.4274 34.9993C54.3345 34.9993 55.9466 33.5042 55.9989 31.5978C56.0531 29.6198 54.4659 27.9993 52.5002 27.9993H46.3752V21.5741L51.475 16.4743C52.8418 15.1074 52.8418 12.8914 51.475 11.5245C50.108 10.1576 47.8921 10.1576 46.5251 11.5245L40.5503 17.4993H15.4499L9.47512 11.5244C8.10815 10.1575 5.89221 10.1575 4.52524 11.5244C3.15849 12.8913 3.15849 15.1073 4.52524 16.4742L9.62518 21.5741V27.9993H3.50018C1.53449 27.9993 -0.0527594 29.6198 0.00159995 31.5978C0.0538812 33.5042 1.66596 34.9993 3.57302 34.9993H9.62518V36.7494C9.62518 39.1407 10.1591 41.407 11.1127 43.4371L4.52524 50.0245C3.15849 51.3914 3.15849 53.6074 4.52524 54.9743C5.8921 56.341 8.10815 56.3412 9.47512 54.9743L15.4619 48.9875C18.1689 51.183 21.618 52.4994 25.3752 52.4994V25.8118C25.3752 25.087 25.9628 24.4993 26.6877 24.4993H29.3127C30.0375 24.4993 30.6252 25.087 30.6252 25.8118V52.4994C34.3823 52.4994 37.8315 51.183 40.5385 48.9875L46.5252 54.9743C47.8921 56.341 50.1081 56.3412 51.4751 54.9743C52.8419 53.6074 52.8419 51.3914 51.4751 50.0245L44.8877 43.4371C45.8412 41.407 46.3752 39.1407 46.3752 36.7494V34.9993H52.4274Z" fill="#304859"/>
<mask id="mask0_0_3409" style="mask-type:alpha" maskUnits="userSpaceOnUse" x="0" y="0" width="57" height="56">
<path fill-rule="evenodd" clip-rule="evenodd" d="M15.8594 12.25C15.8594 5.4845 21.3439 0 28.1094 0C34.8749 0 40.3594 5.4845 40.3594 12.25H15.8594ZM52.4274 34.9993C54.3345 34.9993 55.9466 33.5042 55.9989 31.5978C56.0531 29.6198 54.4659 27.9993 52.5002 27.9993H46.3752V21.5741L51.475 16.4743C52.8418 15.1074 52.8418 12.8914 51.475 11.5245C50.108 10.1576 47.8921 10.1576 46.5251 11.5245L40.5503 17.4993H15.4499L9.47512 11.5244C8.10815 10.1575 5.89221 10.1575 4.52524 11.5244C3.15849 12.8913 3.15849 15.1073 4.52524 16.4742L9.62518 21.5741V27.9993H3.50018C1.53449 27.9993 -0.0527594 29.6198 0.00159995 31.5978C0.0538812 33.5042 1.66596 34.9993 3.57302 34.9993H9.62518V36.7494C9.62518 39.1407 10.1591 41.407 11.1127 43.4371L4.52524 50.0245C3.15849 51.3914 3.15849 53.6074 4.52524 54.9743C5.8921 56.341 8.10815 56.3412 9.47512 54.9743L15.4619 48.9875C18.1689 51.183 21.618 52.4994 25.3752 52.4994V25.8118C25.3752 25.087 25.9628 24.4993 26.6877 24.4993H29.3127C30.0375 24.4993 30.6252 25.087 30.6252 25.8118V52.4994C34.3823 52.4994 37.8315 51.183 40.5385 48.9875L46.5252 54.9743C47.8921 56.341 50.1081 56.3412 51.4751 54.9743C52.8419 53.6074 52.8419 51.3914 51.4751 50.0245L44.8877 43.4371C45.8412 41.407 46.3752 39.1407 46.3752 36.7494V34.9993H52.4274Z" fill="white"/>
</mask>
<g mask="url(#mask0_0_3409)">
<rect width="56" height="56" fill="#304859"/>
</g>
</svg>
